# xmcd
#
# Track frame offsets:
#	150
#	14910
#	26742
#	39326
#	57903
#	65574
#	78245
#	91549
#	102825
#	113646
#	125698
#	137725
#	152915
#	167447
#
# Disc length: 2445 seconds
#
# Revision: 0
# Processed by: cddbd v1.5.2PL0 Copyright (c) Steve Scherf et al.
# Submitted via: EasyCDDAExtractor 11.1.0.1
#
DISCID=b0098b0e
DTITLE=Sleepy Sleepers - In The Rio (English)
DYEAR=1900
DGENRE=
TTITLE0=Come On Honey
TTITLE1=Swingin Chevy
TTITLE2=Engineer
TTITLE3=Do You Love Me
TTITLE4=Russian Rock
TTITLE5=Highway
TTITLE6=City Heavy
TTITLE7=Sally Is Something Else
TTITLE8=Drinking Boys
TTITLE9=Too Drunk To Drive
TTITLE10=Batman and Robin
TTITLE11=La Bamba
TTITLE12=Tell Him
TTITLE13=Hevi Kills
EXTD=
EXTT0=
EXTT1=
EXTT2=
EXTT3=
EXTT4=
EXTT5=
EXTT6=
EXTT7=
EXTT8=
EXTT9=
EXTT10=
EXTT11=
EXTT12=
EXTT13=
PLAYORDER=
